<svg xmlns="http://www.w3.org/2000/svg" viewBox="0 0 400 820" width="400" height="820" font-family="-apple-system, 'SF Pro Display', 'Segoe UI', Roboto, Arial, sans-serif">
  <defs>
    <clipPath id="screen2"><rect x="22" y="22" width="356" height="776" rx="46"/></clipPath>
  </defs>

  <rect x="10" y="10" width="380" height="800" rx="58" fill="#0b0b0e"/>
  <rect x="13" y="13" width="374" height="794" rx="55" fill="#000"/>

  <g clip-path="url(#screen2)">
    <rect x="22" y="22" width="356" height="776" fill="#17212b"/>

    <!-- header -->
    <rect x="22" y="22" width="356" height="118" fill="#1d2a39"/>
    <line x1="22" y1="140" x2="378" y2="140" stroke="#0c141d" stroke-width="1"/>

    <!-- status bar (light on dark) -->
    <text x="50" y="55" fill="#fff" font-size="15" font-weight="600">9:41</text>
    <g fill="#fff">
      <rect x="300" y="47" width="3" height="7" rx="1"/><rect x="305" y="44" width="3" height="10" rx="1"/>
      <rect x="310" y="41" width="3" height="13" rx="1"/><rect x="315" y="38" width="3" height="16" rx="1"/>
      <path d="M326 47a8 8 0 0 1 16 0z"/>
      <rect x="346" y="41" width="20" height="11" rx="3.2" fill="none" stroke="#fff" stroke-width="1.4"/>
      <rect x="348" y="43" width="14" height="7" rx="1.5"/><rect x="367" y="44" width="1.6" height="5" rx="0.8"/>
    </g>
    <rect x="158" y="33" width="84" height="27" rx="13.5" fill="#000"/>

    <!-- back + title -->
    <path d="M52 104l-9-9 9-9" fill="none" stroke="#5eb5f7" stroke-width="2.6" stroke-linecap="round" stroke-linejoin="round"/>
    <text x="200" y="98" text-anchor="middle" fill="#ffffff" font-size="17" font-weight="700">MAX → Telegram</text>
    <text x="200" y="118" text-anchor="middle" fill="#7c8b9a" font-size="12.5">12 тем · каждый чат MAX отдельно</text>

    <!-- rows -->
    <g transform="translate(0,152)">
      <circle cx="56" cy="42" r="26" fill="#ff7a8a"/><text x="56" y="50" text-anchor="middle" fill="#fff" font-size="22" font-weight="600">О</text>
      <text x="94" y="36" fill="#ffffff" font-size="16.5" font-weight="600">Ольга Лебедева</text>
      <text x="94" y="58" fill="#7c8b9a" font-size="14.5">Привет! Освободилась — ты где? 😊</text>
      <text x="352" y="32" text-anchor="end" fill="#6c7883" font-size="13">9:41</text>
      <circle cx="345" cy="52" r="11" fill="#3390ec"/><text x="345" y="56.5" text-anchor="middle" fill="#fff" font-size="12" font-weight="700">2</text>
      <line x1="94" y1="82" x2="378" y2="82" stroke="#232e3c" stroke-width="1"/>
    </g>
    <g transform="translate(0,238)">
      <circle cx="56" cy="42" r="26" fill="#54b4ff"/><text x="56" y="50" text-anchor="middle" fill="#fff" font-size="22" font-weight="600">И</text>
      <text x="94" y="36" fill="#ffffff" font-size="16.5" font-weight="600">Иван Петров</text>
      <text x="94" y="58" fill="#7c8b9a" font-size="14.5">📄 Договор_аренды.pdf</text>
      <text x="352" y="32" text-anchor="end" fill="#6c7883" font-size="13">9:36</text>
      <line x1="94" y1="82" x2="378" y2="82" stroke="#232e3c" stroke-width="1"/>
    </g>
    <g transform="translate(0,324)">
      <circle cx="56" cy="42" r="26" fill="#a78bfa"/><text x="56" y="50" text-anchor="middle" fill="#fff" font-size="22" font-weight="600">Р</text>
      <text x="94" y="36" fill="#ffffff" font-size="16.5" font-weight="600">Рабочий чат</text>
      <text x="94" y="58" fill="#7c8b9a" font-size="14.5">🖼 Фото · 🎞 Видео</text>
      <text x="352" y="32" text-anchor="end" fill="#6c7883" font-size="13">9:12</text>
      <circle cx="345" cy="52" r="11" fill="#3390ec"/><text x="345" y="56.5" text-anchor="middle" fill="#fff" font-size="12" font-weight="700">5</text>
      <line x1="94" y1="82" x2="378" y2="82" stroke="#232e3c" stroke-width="1"/>
    </g>
    <g transform="translate(0,410)">
      <circle cx="56" cy="42" r="26" fill="#34c759"/><text x="56" y="50" text-anchor="middle" fill="#fff" font-size="22" font-weight="600">М</text>
      <text x="94" y="36" fill="#ffffff" font-size="16.5" font-weight="600">Мама</text>
      <text x="94" y="58" fill="#7c8b9a" font-size="14.5">Позвони, как сможешь ❤️</text>
      <text x="352" y="32" text-anchor="end" fill="#6c7883" font-size="13">вчера</text>
      <line x1="94" y1="82" x2="378" y2="82" stroke="#232e3c" stroke-width="1"/>
    </g>
    <g transform="translate(0,496)">
      <circle cx="56" cy="42" r="26" fill="#ff9f0a"/><text x="56" y="50" text-anchor="middle" fill="#fff" font-size="22" font-weight="600">Д</text>
      <text x="94" y="36" fill="#ffffff" font-size="16.5" font-weight="600">Доставка</text>
      <text x="94" y="58" fill="#7c8b9a" font-size="14.5">Заказ #4821 в пути 🚚</text>
      <text x="352" y="32" text-anchor="end" fill="#6c7883" font-size="13">вчера</text>
      <line x1="94" y1="82" x2="378" y2="82" stroke="#232e3c" stroke-width="1"/>
    </g>
    <g transform="translate(0,582)">
      <circle cx="56" cy="42" r="26" fill="#5e9cea"/><text x="56" y="50" text-anchor="middle" fill="#fff" font-size="22" font-weight="600">К</text>
      <text x="94" y="36" fill="#ffffff" font-size="16.5" font-weight="600">Кирилл</text>
      <text x="94" y="58" fill="#7c8b9a" font-size="14.5">Стикер 🐱</text>
      <text x="352" y="32" text-anchor="end" fill="#6c7883" font-size="13">пн</text>
    </g>

    <!-- bottom hint -->
    <rect x="22" y="700" width="356" height="98" fill="#1d2a39"/>
    <line x1="22" y1="700" x2="378" y2="700" stroke="#0c141d" stroke-width="1"/>
    <text x="200" y="742" text-anchor="middle" fill="#7c8b9a" font-size="13.5">Откройте тему и ответьте — уйдёт в этот чат MAX</text>
    <rect x="148" y="782" width="104" height="5" rx="2.5" fill="#fff" opacity="0.5"/>
  </g>
</svg>
